# xmcd
#
# Track frame offsets: 
#        150
#        14483
#        32294
#        50279
#        70968
#        85560
#        101243
#        116021
#        137662
#        153850
#        175736
#        191654
#
# Disc length: 2846 seconds
#
# Revision: 8
# Processed by: cddbd v1.5.2PL0 Copyright (c) Steve Scherf et al.
# Submitted via: ExactAudioCopy v1.3
#
DISCID=930b1c0c
DTITLE=Wynonna Judd - The Other Side
DYEAR=1997
DGENRE=Country
TTITLE0=When Love Starts Talkin' 
TTITLE1=The Other Side
TTITLE2=Love Like That
TTITLE3=The Kind Of Fool Love Makes
TTITLE4=Troubled Heart And A Troubled Mind
TTITLE5=Don't You Throw That Mojo On Me
TTITLE6=Come Some Rainy Day
TTITLE7=Love's Funny That Way
TTITLE8=The Wyld Unknown
TTITLE9=Why Now
TTITLE10=We Can't Unmake Love (with John Berry)
TTITLE11=Always Will
EXTD=
EXTT0=
EXTT1=
EXTT2=
EXTT3=
EXTT4=
EXTT5=
EXTT6=
EXTT7=
EXTT8=
EXTT9=
EXTT10=
EXTT11=
PLAYORDER=
